<?xml version="1.0" encoding="utf-8"?>
<!-- Generator: Adobe Illustrator 18.1.1, SVG Export Plug-In . SVG Version: 6.00 Build 0)  -->
<svg version="1.1" id="Capa_1" xmlns="http://www.w3.org/2000/svg" xmlns:xlink="http://www.w3.org/1999/xlink" x="0px" y="0px"
	 viewBox="0 0 28 28" enable-background="new 0 0 28 28" xml:space="preserve">
<rect x="0" y="0" fill="#822250" width="28" height="28"/>
<g>
	<path fill="#FFFFFF" d="M16.8,5.7c-3-3-7.8-3-10.8,0s-3,7.8,0,10.8c2.6,2.6,6.8,3,9.7,0.8c0.1,0.2,0.2,0.6,0.5,0.8l4.3,4.3
		c0.6,0.6,1.7,0.6,2.2,0s0.6-1.7,0-2.2l-4.3-4.3c-0.2-0.2-0.5-0.4-0.8-0.5C19.8,12.4,19.5,8.3,16.8,5.7z M15.5,15
		c-2.2,2.2-5.8,2.2-8.1,0S5.2,9.2,7.5,7s5.8-2.2,8.1,0C17.6,9.2,17.6,12.8,15.5,15z"/>
</g>
</svg>
