<?xml version="1.0" encoding="utf-8"?>
<!-- Generator: Adobe Illustrator 16.0.3, SVG Export Plug-In . SVG Version: 6.00 Build 0)  -->
<!DOCTYPE svg PUBLIC "-//W3C//DTD SVG 1.1//EN" "http://www.w3.org/Graphics/SVG/1.1/DTD/svg11.dtd">
<svg version="1.1" id="Layer_1" xmlns="http://www.w3.org/2000/svg" xmlns:xlink="http://www.w3.org/1999/xlink" x="0px" y="0px"
	 width="16px" height="16px" viewBox="0 0 800 800" style="enable-background:new 0 0 800 800;" xml:space="preserve">
<g>
	<defs>
		<rect id="SVGID_1_" width="800" height="800"/>
	</defs>
	<clipPath id="SVGID_2_">
		<use xlink:href="#SVGID_1_"  style="overflow:visible;"/>
	</clipPath>
	<path style="clip-path:url(#SVGID_2_);fill:#972751;" d="M400.002,421.889c99.058,0,179.369-93.996,179.369-209.945
		C579.371,51.154,499.063,2,400.002,2c-99.066,0-179.37,49.154-179.37,209.944C220.634,327.893,300.938,421.889,400.002,421.889"/>
	<path style="clip-path:url(#SVGID_2_);fill:#972751;" d="M796.088,730.9l-90.494-203.855c-4.14-9.328-11.411-17.064-20.462-21.777
		L544.69,432.159c-3.098-1.609-6.848-1.296-9.632,0.812c-39.722,30.043-86.425,45.923-135.057,45.923
		c-48.64,0-95.339-15.88-135.061-45.923c-2.792-2.107-6.542-2.421-9.639-0.812l-140.433,73.108
		c-9.054,4.713-16.318,12.445-20.461,21.777L3.914,730.9c-6.239,14.054-4.961,30.133,3.421,43.023
		c8.378,12.89,22.558,20.581,37.931,20.581h709.466c15.373,0,29.557-7.696,37.935-20.583
		C801.044,761.033,802.326,744.948,796.088,730.9"/>
</g>
</svg>
