<?xml version="1.0" encoding="utf-8"?>
<!-- Generator: Adobe Illustrator 16.0.3, SVG Export Plug-In . SVG Version: 6.00 Build 0)  -->
<!DOCTYPE svg PUBLIC "-//W3C//DTD SVG 1.1//EN" "http://www.w3.org/Graphics/SVG/1.1/DTD/svg11.dtd">
<svg version="1.1" id="Layer_1" xmlns="http://www.w3.org/2000/svg" xmlns:xlink="http://www.w3.org/1999/xlink" x="0px" y="0px"
	 width="600px" height="326px" viewBox="0 0 600 326" style="enable-background:new 0 0 600 326;" xml:space="preserve">
<g id="Layer_1_1_">
	<path style="fill:#F0EFF1;" d="M69.258,185.602c47.595-0.012,95.188-0.027,142.783-0.026c5.999,0.002,9.679,3.034,9.5,7.705
		c-0.17,4.502-3.673,7.206-9.5,7.206c-47.595,0.002-95.189-0.018-142.783-0.026C62.612,195.005,62.612,191.055,69.258,185.602z"/>
	<path style="fill:#9D9D9D;" d="M505.323,77.904c-9.884,0-19.06,0-28.853,0c2.54-3.194,5.896-2.815,8.74-3.555
		c1.438-0.374,3.084-0.122,2.998-2.354c-0.069-1.766,0.454-3.674-1.939-4.526c-7.302-2.597-11.895-7.565-13.145-15.366
		c-0.316-1.976-2.081-1.882-3.411-2.347c-5.348-1.869-8.658-5.533-9.242-11.18c-0.563-5.436,1.696-9.74,6.488-12.42
		c1.932-1.081,2.641-2.204,1.881-4.328c-1.253-3.507,0.287-4.768,3.755-5.73c12.631-3.506,25.096-3.453,37.692,0.114
		c3.044,0.862,4.469,2.069,3.419,5.094c-0.874,2.517-0.133,3.773,2.16,5.098c4.548,2.63,6.652,6.904,6.104,12.137
		c-0.568,5.415-3.542,9.33-8.788,10.918c-2.786,0.844-3.746,2.27-4.417,5.026c-1.459,5.983-5.405,10.244-11.193,12.389
		c-2.645,0.979-3.604,2.314-3.399,5.091c0.22,2.963,2.49,1.955,3.995,2.52C500.385,75.318,503.174,74.794,505.323,77.904z
		 M485.068,26.167c-0.354,0.266-0.842,0.522-0.209,0.961c0.056,0.039,0.409-0.351,0.622-0.544c0.331-0.325,0.665-0.652,0.996-0.978
		c2.729-0.478,5.439-1.076,8.245-1.001c-2.997-1.448-5.941-2.311-8.631,0.624C485.753,25.541,485.411,25.855,485.068,26.167z
		 M497.296,26.236c-0.195-0.175-0.521-0.531-0.569-0.498c-0.608,0.433-0.043,0.608,0.224,0.85c1.081,3.087,1.638,6.23,1.008,9.504
		c-0.266,0.343-0.532,0.686-0.799,1.029c-2.647,1.988-5.604,3.203-8.787,1.813c-2.168-0.948-2.905-0.128-3.742,1.591
		c-0.866,1.779-1.966,3.444-2.981,5.148c-1.403,2.354-3.054,4.72,0.81,6.601c0.791-1.214,1.641-2.425,2.393-3.691
		c0.844-1.422,1.548-2.927,2.402-4.342c2.676-4.429,5.412-4.426,7.984-0.031c1.635,2.792,3.279,5.576,4.575,7.775
		c5.033-1.674,2.049-3.915,1.134-6.216c-1.126-2.832-4.225-4.853-3.512-8.439c0.3-0.285,0.603-0.569,0.903-0.854
		C501.21,32.735,500.569,29.352,497.296,26.236z M520.137,37.479c-0.223-3.842-1.608-7.057-5.016-9.159
		c-1.278-0.789-2.526-1.203-2.815,0.963c-0.72,5.407-1.435,10.815-2.131,16.225c-0.329,2.563,0.865,2.746,2.906,1.936
		C517.611,45.643,519.628,42.141,520.137,37.479z M472.178,45.463c-0.664-5.247-1.375-10.488-1.975-15.743
		c-0.34-2.968-1.889-2.159-3.354-1.107c-3.382,2.426-4.918,5.85-4.387,9.931c0.553,4.221,2.803,7.319,6.94,8.92
		C471.546,48.292,472.597,47.955,472.178,45.463z M483.484,36.096c0.723-3.342,1.068-5.216,0.082-7.569
		C481.854,30.859,481.929,32.726,483.484,36.096z M484.512,36.834l0.258,0.175l0.027-0.302L484.512,36.834z"/>
	<path style="fill:#9D9D9D;" d="M401.495,60.818c1.162,4.086-1.99,9.531,1.66,14.388c0.769,1.022-0.925,2.287-1.761,3.247
		c-0.798,0.913-1.794,0.861-2.529-0.087c-0.773-0.993-2.53-2.209-1.62-3.266c3.058-3.547,1.238-7.586,1.559-11.359
		c0.335-3.949,0.308-7.968-0.018-11.919c-0.176-2.147,1.667-6.044-1.649-6.097c-2.78-0.044-1.117,3.777-1.364,5.837
		c-0.314,2.616-0.204,5.303-0.04,7.945c0.159,2.625-0.916,3.515-3.468,3.43c-4.141-0.138-8.288-0.109-12.429,0.002
		c-1.705,0.045-3.535-0.62-5.013,1.228c-1.298,1.622-2.225-0.286-3.154-0.927c-1.146-0.792-1.409-1.976-0.209-2.861
		c0.979-0.725,1.377-2.375,3.562-1.257c5.368,2.746,11.271,0.753,16.935,1.065c1.862,0.103,1.665-1.708,1.681-2.999
		c0.034-2.983,0.048-5.967-0.006-8.95c-0.02-1.073,0.376-2.615-1.277-2.761c-2.146-0.191-1.582,1.625-1.704,2.821
		c-0.378,3.584-6.688,7.353-9.349,5.467c-0.878-0.624-2.904-1.285-1.479-2.841c0.928-1.012,1.865-3.716,4.063-1.552
		c1.335,1.317,2.789,1.188,4.022,0.456c1.065-0.634,0.79-2.116,0.515-3.226c-0.46-1.847-2.084-1.213-3.301-1.316
		c-1.153-0.097-2.32,0.009-3.479-0.056c-5.542-0.312-10.041-4.172-10.792-9.222c-0.899-6.064,1.94-10.671,7.716-12.845
		c1.519-0.572,3.578-0.059,4.542-1.651c3.043-5.028,7.498-6.688,13.115-5.979c1.562,0.197,2.229-1.229,3.233-2.03
		c7.296-5.802,16.195-3.14,18.716,5.9c0.65,2.33,1.726,3.114,3.679,3.877c6.177,2.412,8.836,7.251,7.566,13.324
		c-1.059,5.069-5.744,8.503-11.813,8.653c-0.993,0.024-1.988-0.022-2.982,0.021c-1.12,0.048-2.479-0.195-2.729,1.421
		c-0.174,1.121-0.489,2.472,0.623,3.211c0.979,0.649,2.655,0.836,3.272,0.005c2.116-2.85,3.196-0.365,4.554,0.652
		c1.107,0.829,0.788,1.729-0.191,2.361c-1.308,0.846-2.52,3.126-4.274,0.409c-0.255-0.394-1.236-0.513-1.851-0.447
		c-3.614,0.383-4.688-1.405-4.357-4.709c0.102-1.027,0.421-2.612-1.299-2.707c-2.134-0.118-1.72,1.697-1.632,2.866
		c0.297,3.892-1.795,10.174,0.979,11.187c5.268,1.925,11.79,1.999,17.349-0.224c2.111-0.846,2.554,0.045,3.556,0.786
		c1.357,1.003,1.384,2.22-0.021,3.227c-1.046,0.748-1.708,2.326-3.581,0.482c-2.011-1.979-5.05-0.837-7.616-0.855
		c-12.703-0.096-12.703-0.044-12.753-12.514c-0.005-0.995,0.009-1.99-0.026-2.982c-0.035-1.027-0.166-2.066-1.542-2.043
		c-1.316,0.022-1.572,1.008-1.579,2.056C401.482,51.606,401.495,55.75,401.495,60.818z"/>
	<path style="fill:#9D9D9D;" d="M297.601,28.636c2.561-1.295,4.6-2.328,6.642-3.354c2.043-1.026,4.165-1.687,5.809,0.509
		c1.826,2.438,0.376,4.534-1.392,6.087c-2.854,2.508-5.869,4.872-9.029,6.979c-1.9,1.268-2.586,2.664-2.562,4.883
		c0.099,8.948,0.045,17.896,0.039,26.845c-0.001,1.873-0.144,3.707,2.651,3.682c9.939-0.083,19.882-0.073,29.822-0.139
		c0.376-0.002,0.75-0.433,1.132-0.667c-0.522-2.059-2.198-1.163-3.288-1.547c-2.121-0.75-3.472-2.09-3.117-4.417
		c0.304-2.004,1.643-3.25,3.747-3.318c2.481-0.082,4.97-0.035,7.454-0.035c2.097,0,3.56,1.037,3.996,3.03
		c0.445,2.021-0.499,3.875-2.451,4.295c-3.226,0.698-3.1,2.88-2.943,5.227c0.313,4.723-1.973,6.528-6.566,6.454
		c-9.112-0.147-18.229-0.155-27.34,0.006c-4.408,0.078-6.742-2.004-6.623-6.134c0.106-3.652-1.634-3.895-4.507-3.951
		c-8.731-0.166-14.405-4.637-16.3-12.497c-2.177-9.021,1.157-18.326,7.992-22.277c0.86-0.498,1.707-1.055,2.628-1.399
		c7.619-2.847,11.596-7.526,10.257-16.394c-0.797-5.285,1.648-7.053,7.039-7.076c8.948-0.042,17.898,0.089,26.844-0.053
		c4.592-0.074,6.805,1.74,6.598,6.461c-0.152,3.473-0.063,6.958-0.017,10.438c0.038,2.808-0.917,6.044,3.621,6.664
		c1.368,0.188,2.173,2.004,1.814,3.676c-0.331,1.553-1.226,2.799-2.819,3.174c-3.102,0.729-6.28,0.578-9.38,0.143
		c-1.968-0.274-3.19-1.817-3.105-3.917c0.075-1.82,1.159-3.556,2.906-3.507c4.092,0.116,3.866-2.333,3.859-5.162
		c-0.021-10.211,0.032-10.211-10.089-10.211c-5.966,0-11.932-0.005-17.896,0.001C296.643,21.141,296.643,21.145,297.601,28.636z
		 M318.523,17.452c-3.239-1.265-6.468-1.434-9.676,0.154C312.063,18.418,315.278,18.72,318.523,17.452z M316.075,78.563
		c-0.061-1.289-0.693-2.152-1.995-2.292c-1.444-0.157-2.032,0.783-2.076,2.053c-0.046,1.277,0.595,2.234,1.911,2.324
		C315.257,80.74,315.913,79.845,316.075,78.563z"/>
	<path style="fill:#F0EFF1;" d="M104.987,210.514c35.939-0.023,71.878-0.063,107.817-0.053c5.282,0.002,8.745,3.068,8.745,7.443
		s-3.464,7.44-8.747,7.441c-35.939,0.012-71.878-0.027-107.816-0.052C98.464,219.914,98.463,215.9,104.987,210.514z"/>
	<path style="fill:#812250;" d="M462.218,153.943c-5.465,0-10.935-0.109-16.395,0.049c-2.521,0.073-3.452-0.604-3.42-3.292
		c0.138-11.262,0.124-22.525,0.008-33.786c-0.025-2.437,0.801-3.058,3.124-3.037c11.262,0.101,22.525,0.134,33.786-0.017
		c2.801-0.036,3.224,1.107,3.202,3.506c-0.096,11.095-0.116,22.194,0.014,33.29c0.029,2.66-0.873,3.408-3.427,3.335
		C473.484,153.834,467.849,153.943,462.218,153.943z M462.877,136.461c-2.615-2.777-4.849-5.18-7.116-7.555
		c-1.471-1.539-3.547-1.793-4.842-0.484c-1.261,1.275,0.329,2.602,1.387,3.648c2.812,2.781,5.598,5.585,8.385,8.386
		c0.96,0.966,2.073,2.081,3.357,0.86c3.584-3.397,7.106-6.869,10.47-10.481c1.313-1.408,0.005-2.688-0.98-3.816
		c-1.458-1.664-1.909,0.265-2.468,0.822C468.388,130.51,465.841,133.314,462.877,136.461z"/>
	<path style="fill:#812250;" d="M532.464,113.925c5.466,0,10.938,0.13,16.396-0.056c2.651-0.089,3.354,0.826,3.328,3.385
		c-0.121,11.096-0.113,22.193-0.007,33.289c0.025,2.504-0.604,3.49-3.303,3.457c-11.261-0.132-22.524-0.118-33.785-0.006
		c-2.468,0.025-3.038-0.895-3.021-3.177c0.093-11.261,0.137-22.525-0.024-33.785c-0.04-2.861,1.165-3.2,3.522-3.147
		C521.201,114.01,526.832,113.923,532.464,113.925z M542.018,141.662c4.095-4.773,1.29-6.726-0.938-8.942
		c-8.688-8.636-8.739-8.718-17.101-0.112c-1.725,1.775-6.281,3.642-2.196,6.803c2.598,2.011,3.626-1.996,5.081-3.338
		c5.655-5.219,5.581-5.402,10.785-0.042C539.234,137.667,540.47,139.645,542.018,141.662z"/>
	<path style="fill:#F1BD01;" d="M53.276,50.24c-5.8,0-11.604-0.106-17.399,0.049c-2.523,0.068-3.465-0.592-3.431-3.293
		c0.143-11.103,0.143-22.208,0-33.309c-0.034-2.705,0.912-3.321,3.43-3.296c11.765,0.111,23.533,0.097,35.299,0.008
		c2.297-0.019,3.192,0.581,3.169,3.038c-0.11,11.269-0.11,22.54,0,33.807c0.025,2.458-0.869,3.087-3.169,3.038
		C65.211,50.156,59.243,50.24,53.276,50.24z M58.785,26.728c-0.069-6.476-5.451-11.488-11.122-11.055
		c-5.759,0.438-10.545,6.038-9.899,11.581c0.689,5.916,6.273,10.736,11.907,9.06c4.764-1.418,7.344,0.31,10.011,3.5
		c1.271,1.519,2.708,2.926,4.224,4.202c0.987,0.832,1.798,3.119,3.495,1.549c2.066-1.909-0.601-2.734-1.434-3.854
		C62.457,36.982,54.209,34.458,58.785,26.728z"/>
	<path style="fill:#F0EFF1;" d="M140.761,235.408c24.015-0.028,48.029-0.083,72.043-0.07c5.282,0.003,8.745,3.068,8.745,7.442
		s-3.464,7.438-8.746,7.439c-24.014,0.015-48.029-0.038-72.042-0.069C134.283,244.752,134.283,240.797,140.761,235.408z"/>
	<path style="fill:#812250;" d="M174.832,285.23c13.074-0.054,26.149-0.15,39.223-0.135c4.642,0.004,7.591,2.897,7.715,7.209
		c0.126,4.407-2.974,7.844-7.732,7.854c-13.07,0.023-26.14-0.199-39.211-0.324C170.517,294.014,170.518,290.357,174.832,285.23z"/>
	<path style="fill:#F0EFF1;" d="M176.559,260.296c12.084-0.034,24.168-0.11,36.252-0.081c5.277,0.016,8.74,3.07,8.739,7.443
		c0,4.371-3.461,7.426-8.741,7.439c-12.083,0.03-24.167-0.046-36.251-0.078C170.102,269.664,170.102,265.643,176.559,260.296z"/>
	<path style="fill:#AF7DA8;" d="M103.246,285.341c12.262-0.419,24.524-0.464,36.786,0.005c-5.096,7.19-5.096,7.19,0,14.375
		c-12.262,0.467-24.525,0.426-36.787,0.004C99.823,294.932,99.792,290.137,103.246,285.341z"/>
	<path style="fill:#C4A2C0;" d="M104.987,210.514c-6.523,5.387-6.523,9.398,0,14.782c-12.512-0.054-25.021-0.108-37.532-0.159
		c-3.776-4.82-3.785-9.642,0-14.463C79.966,210.622,92.477,210.568,104.987,210.514z"/>
	<path style="fill:#AF7DA8;" d="M140.761,235.408c-6.479,5.388-6.479,9.342-0.001,14.746c-12.505-0.063-25.01-0.121-37.515-0.182
		c-3.915-4.793-3.209-9.591,0-14.386C115.75,235.529,128.255,235.469,140.761,235.408z"/>
	<path style="fill:#C4A2C0;" d="M67.456,260.426c11.928-0.347,23.856-0.439,35.783,0.041c-3.435,4.791-3.413,9.586,0,14.379
		c-11.927,0.481-23.855,0.387-35.783,0.043C63.679,270.068,63.669,265.248,67.456,260.426z"/>
	<path style="fill:#C4A2C0;" d="M103.246,285.341c-3.454,4.796-3.422,9.591,0,14.384c-11.93,0.478-23.859,0.387-35.79,0.041
		c-3.776-4.82-3.785-9.643,0-14.464C79.385,284.955,91.316,284.865,103.246,285.341z"/>
	<path style="fill:#995691;" d="M176.559,260.296c-6.457,5.347-6.457,9.368-0.001,14.726c-12.503-0.057-25.007-0.111-37.511-0.168
		c-3.379-4.797-3.374-9.595,0-14.39C151.55,260.406,164.056,260.352,176.559,260.296z"/>
	<path style="fill:#C4A2C0;" d="M103.246,235.588c-3.209,4.795-3.915,9.592,0,14.385c-11.93,0.478-23.86,0.385-35.792,0.041
		c-3.775-4.82-3.785-9.643,0-14.464C79.385,235.201,91.316,235.113,103.246,235.588z"/>
	<path style="fill:#AF7DA8;" d="M139.045,260.464c-3.374,4.795-3.379,9.593,0,14.39c-11.936,0.455-23.872,0.424-35.808-0.006
		c-3.414-4.794-3.436-9.589,0-14.381C115.174,260.035,127.109,260.006,139.045,260.464z"/>
	<path style="fill:#F2C111;" d="M75.282,161.056c-4.357-2.739-4.955-0.523-5.339,3.099c-3.249-5.639-6.477-11.289-9.749-16.913
		c-3.003-5.16-7.907-5.23-10.901-0.149c-3.335,5.666-6.616,11.363-10.46,17.978c-0.287-2.427-0.449-3.792-0.62-5.228
		c-1.552-1.033-2.553,1.146-3.983,0.729c-0.785-0.287-0.368-0.858-0.175-1.196c3.03-5.324,6.022-10.672,9.189-15.915
		c1.179-1.953,1.167-3.24-0.309-5.207c-5.235-6.985-4.475-15.216,1.538-20.547c5.733-5.085,14.253-5.051,19.943,0.081
		c5.823,5.251,6.677,13.375,1.665,20.17c-1.515,2.052-1.256,3.285-0.151,5.145c3.13,5.264,6.116,10.613,9.136,15.94
		C75.212,159.302,75.145,159.683,75.282,161.056z M67.289,129.089c0.168-6.903-5.943-13.132-12.888-13.136
		c-6.763-0.002-12.714,5.824-12.9,12.628c-0.183,6.75,6.09,13.153,12.897,13.162C61.073,141.754,67.127,135.811,67.289,129.089z"/>
	<path style="fill:#995691;" d="M140.031,299.721c-5.096-7.185-5.096-7.185,0-14.375c11.601-0.039,23.201-0.078,34.8-0.115
		c-4.314,5.129-4.316,8.783-0.004,14.604C163.229,299.797,151.63,299.759,140.031,299.721z"/>
	<path style="fill:#DAC9D8;" d="M69.258,185.602c-6.646,5.453-6.646,9.403,0,14.855c-9.257,0.011-18.513,0.063-27.771,0.02
		c-5.549-0.027-9.127-3.172-8.958-7.694c0.163-4.332,3.613-7.175,8.959-7.2C50.744,185.541,60,185.59,69.258,185.602z"/>
	<path style="fill:#DAC9D8;" d="M67.456,235.551c-3.786,4.822-3.777,9.643,0,14.465c-9.074,0.072-18.148,0.26-27.222,0.174
		c-4.503-0.045-7.711-3.381-7.711-7.407c0-4.015,3.22-7.362,7.712-7.405C49.306,235.286,58.381,235.477,67.456,235.551z"/>
	<path style="fill:#DAC9D8;" d="M67.456,260.426c-3.786,4.822-3.777,9.643,0,14.465c-9.074,0.072-18.148,0.262-27.222,0.174
		c-4.503-0.045-7.711-3.381-7.711-7.405c0-4.017,3.22-7.363,7.712-7.406C49.306,260.162,58.381,260.352,67.456,260.426z"/>
	<path style="fill:#DAC9D8;" d="M67.456,285.303c-3.786,4.822-3.777,9.643,0,14.465c-9.074,0.072-18.148,0.262-27.222,0.174
		c-4.503-0.045-7.711-3.381-7.711-7.405c0-4.017,3.22-7.363,7.712-7.407C49.306,285.038,58.381,285.229,67.456,285.303z"/>
	<path style="fill:#DAC9D8;" d="M67.456,210.676c-3.786,4.82-3.777,9.643,0,14.463c-9.074,0.072-18.148,0.262-27.222,0.174
		c-4.503-0.043-7.711-3.381-7.711-7.404c0-4.018,3.22-7.363,7.712-7.407C49.306,210.41,58.381,210.6,67.456,210.676z"/>
	<path style="fill:#8D3862;" d="M184.349,135.17c6.007,5.914,11.689,11.457,17.293,17.083c0.791,0.794,2.728,1.499,1.381,3.099
		c-1.4,1.665-2.329-0.108-3.142-0.91c-5.772-5.693-11.456-11.475-17.234-17.161c-1.416-1.395-1.873-2.728-0.399-4.215
		c5.824-5.877,11.672-11.729,17.555-17.548c0.952-0.943,2.322-1.817,3.383-0.393c0.977,1.312-0.636,2.015-1.361,2.742
		C196.108,123.592,190.333,129.26,184.349,135.17z"/>
	<path style="fill:#8D3862;" d="M271.665,134.908c-0.947-1.022-1.687-1.875-2.483-2.674c-4.781-4.794-9.586-9.566-14.352-14.376
		c-0.753-0.76-2.222-1.592-1.169-2.813c1.295-1.501,2.339-0.031,3.227,0.848c5.743,5.7,11.405,11.484,17.211,17.118
		c1.738,1.688,1.558,2.755-0.099,4.361c-5.807,5.635-11.467,11.423-17.214,17.12c-0.752,0.746-1.543,2.171-2.818,1.097
		c-1.446-1.218-0.35-2.35,0.602-3.303c4.895-4.916,9.809-9.811,14.701-14.729C270.055,136.77,270.765,135.908,271.665,134.908z"/>
	<path style="fill:#9D9D9D;" d="M331.453,62.888c-2.5-0.354-7.16,0.66-7.021-4.383c0.125-4.537,4.483-3.82,7.68-4.032
		c0.652-0.043,1.32-0.051,1.971,0.022c2.754,0.308,5.587,0.991,5.474,4.385c-0.103,3.051-2.796,3.709-5.371,3.998
		C333.534,62.95,332.87,62.888,331.453,62.888z"/>
	<path style="fill:#9D9D9D;" d="M331.74,53.198c-1.321,0.001-2.649,0.101-3.957-0.022c-2.099-0.197-3.311-1.55-3.515-3.542
		c-0.215-2.077,0.983-3.768,2.927-3.991c3.088-0.352,6.264-0.336,9.362-0.052c2.054,0.189,3.056,2.034,3.026,3.973
		c-0.028,2.025-1.314,3.382-3.394,3.602C334.723,53.321,333.225,53.196,331.74,53.198z"/>
	<path style="fill:#995691;" d="M347.914,117.954c10.256,6.364,10.049,9.823-1.765,17.487c2.149-2.059,4.208-4.228,6.479-6.145
		c2.245-1.895,2.536-3.383,0.087-5.43c-1.939-1.622-4.073-3.264-4.793-5.945L347.914,117.954z"/>
	<path style="fill:#995691;" d="M316.819,117.298c-0.687,0.739-1.639,1.469-2.198,2.426c-1.774,3.029-6.75,3.782-6.041,8.601
		c0.131,0.897-0.864,0.871-1.439,0.591c-1.211-0.59-2.725-1.726-1.86-2.936c2.753-3.847,6.149-7.173,9.974-9.985
		C315.896,115.521,316.828,115.972,316.819,117.298z"/>
	<path style="fill:#FAF7F9;" d="M499.271,248.29c3.025,0.741,3.023-3.003,5.203-3.749c0.04,5.236-4.272,9.518-10.219,9.991
		c1.522-2.39,5.657-2.507,4.96-6.188L499.271,248.29z"/>
	<path style="fill:#FAF7F9;" d="M454.402,244.52c0.201,6.291-4.472,8.244-9.543,9.894c1.719-1.427,3.584-2.714,5.118-4.315
		C451.613,248.395,452.94,246.391,454.402,244.52z"/>
	<path style="fill:#FAF7F9;" d="M543.606,254.826c3.943-3.422,8.348-5.416,9.576-10.545
		C555.607,248.409,551.109,253.345,543.606,254.826z"/>
	<path style="fill:#FAF7F9;" d="M395.031,254.214c4.046-2.478,7.381-5.466,9.612-10.868
		C405.284,249.529,401.029,253.854,395.031,254.214z"/>
	<path style="fill:#F7FAFC;" d="M404.677,204.863c0.068,5.322-3.229,8.627-9.729,9.674
		C398.913,212.043,402.337,209.037,404.677,204.863z"/>
	<path style="fill:#57B8DC;" d="M427.068,206.809c-2.749-4.203-2.733-8.461-0.114-12.718
		C426.277,198.336,425.729,202.573,427.068,206.809z"/>
	<path style="fill:#FAF7F9;" d="M548.095,212.495c1.857-2.552,3.712-5.101,5.568-7.651c0.379,0.238,0.757,0.477,1.135,0.715
		C554.404,209.063,551.96,211.288,548.095,212.495z"/>
	<path style="fill:#F7FAFC;" d="M376.813,204.45c1.921,2.7,3.843,5.401,5.764,8.102c-0.415,0.269-0.835,0.536-1.252,0.804
		c-2.04-2.609-6.362-3.717-4.557-8.861L376.813,204.45z"/>
	<path style="fill:#F7FAFC;" d="M503.306,206.38c0.296-0.011,0.581,0.043,0.854,0.161c-0.148,4.825-4.128,6.098-7.994,7.553
		C498.544,211.523,500.925,208.951,503.306,206.38z"/>
	<path style="fill:#FAF7F9;" d="M526.082,204.436c1.915,2.703,3.83,5.406,5.745,8.105c-0.413,0.273-0.825,0.545-1.238,0.816
		c-2.067-2.592-6.344-3.722-4.58-8.851L526.082,204.436z"/>
	<path style="fill:#AF7DA8;" d="M391.424,135.108c3.099,1.909,6.447,2.75,9.742,3.785
		C397.184,139.638,393.788,138.655,391.424,135.108z"/>
	<path style="fill:#AF7DA8;" d="M409.058,135.229c1.409-3.231,2.911-6.394,3.579-9.849
		C413.618,129.311,412.233,132.559,409.058,135.229z"/>
	<path style="fill:#FAF7F9;" d="M426.572,244.242c1.685,2.857,4.501,4.988,5.979,9.049c-4.641-2-6.581-4.684-6.039-8.988
		L426.572,244.242z"/>
	<path style="fill:#AF7DA8;" d="M402.192,114.034c-3.418,0.461-6.647,1.781-11.26,3.265
		C395.074,113.657,398.362,112.606,402.192,114.034z"/>
	<path style="fill:#FAF7F9;" d="M376.82,244.242c1.914,2.706,3.829,5.414,5.745,8.119c-4.411-1.072-6.35-3.758-5.81-8.06
		L376.82,244.242z"/>
	<path style="fill:#FAF7F9;" d="M476.326,244.242c1.914,2.706,3.828,5.414,5.743,8.119c-4.411-1.072-6.349-3.758-5.809-8.06
		L476.326,244.242z"/>
	<path style="fill:#FAF7F9;" d="M526.076,244.242c1.917,2.711,3.836,5.422,5.754,8.134c-4.418-1.087-6.357-3.771-5.817-8.073
		L526.076,244.242z"/>
	<path style="fill:#F7FAFC;" d="M476.319,204.445c1.916,2.705,3.83,5.408,5.746,8.113c-4.4-1.082-6.35-3.761-5.799-8.063
		L476.319,204.445z"/>
	<path style="fill:#F7FAFC;" d="M449.469,212.311c0.872-3.045,3.268-5.014,5.184-7.321c0.282,3.838-1.393,6.323-5.109,7.403
		L449.469,212.311z"/>
	<path style="fill:#AF7DA8;" d="M388.119,128.447c-1.509-5.025-0.929-6.89,3.609-11.333
		C389.663,121.193,388.607,124.272,388.119,128.447z"/>
	<path style="fill:#F7FAFC;" d="M476.268,196.488c-0.549-4.301,1.392-6.979,5.795-8.059c-1.915,2.701-3.828,5.404-5.742,8.106
		L476.268,196.488z"/>
	<path style="fill:#F7FAFC;" d="M376.766,196.492c-0.652-4.367,1.676-6.794,5.79-8.063c-1.915,2.702-3.83,5.403-5.746,8.104
		L376.766,196.492z"/>
	<path style="fill:#57B8DC;" d="M453.719,194.035c2.165,2.566,2.542,5.472,1.575,8.632
		C454.481,199.846,454.821,196.803,453.719,194.035z"/>
	<path style="fill:#57B8DC;" d="M442.422,185.645c-2.667,0.926-5.613,0.383-8.25,1.474
		C436.676,185.341,439.376,184.577,442.422,185.645z"/>
	<path style="fill:#FAF7F9;" d="M545.082,225.709c3.773,1.807,6.564,2.629,7.668,5.861
		C549.592,230.844,549.592,230.844,545.082,225.709z"/>
	<path style="fill:#F7FAFC;" d="M402.408,192.492c-1.972-1.76-3.938-3.522-5.905-5.282
		C399.563,187.73,402.479,188.384,402.408,192.492z"/>
	<path style="fill:#FAF7F9;" d="M546.113,186.958c2.749,0.747,5.587,1.512,6.668,5.213
		C549.35,191.594,548.026,188.916,546.113,186.958z"/>
	<path style="fill:#FAF7F9;" d="M403.962,232.777c-3.655-1.953-5.63-3.779-7.757-6.781
		C399.646,227.477,402.386,228.378,403.962,232.777z"/>
	<path style="fill:#FAF7F9;" d="M451.955,232.166c-1.884-1.705-3.766-3.412-6.408-5.809c4.11,0.924,6.605,2.112,7.604,5.009
		C452.752,231.634,452.354,231.9,451.955,232.166z"/>
	<path style="fill:#FAF7F9;" d="M503.246,232.405c-3.621-1.38-5.11-3.761-6.981-5.696
		C499.093,227.539,501.942,228.343,503.246,232.405z"/>
	<path style="fill:#FAF7F9;" d="M378.489,231.82c0.323-2.258,1.413-3.69,3.956-4.25C382.158,230.398,380.277,231.098,378.489,231.82
		z"/>
	<path style="fill:#FAF7F9;" d="M432.188,227.805c-0.277,2.42-1.963,3.291-3.665,4.543
		C428.744,229.311,428.744,229.311,432.188,227.805z"/>
	<path style="fill:#F7FAFC;" d="M503.23,192.906c-2.893-1.412-4.108-2.68-5.345-5.213
		C501.074,188.32,502.262,189.658,503.23,192.906z"/>
	<path style="fill:#FAF7F9;" d="M527.129,232.777c0.62-3.287,2.106-4.314,4.828-5.705
		C531.318,230.104,529.843,231.186,527.129,232.777z"/>
	<path style="fill:#FAF7F9;" d="M477.261,232.405c0.852-2.882,2.147-4.087,4.943-5.085
		C481.391,230.273,480.074,231.457,477.261,232.405z"/>
	<path style="fill:#FAF7F9;" d="M527.013,192.605c0.854-2.889,2.153-4.09,4.951-5.095
		C531.148,190.467,529.83,191.654,527.013,192.605z"/>
	<path style="fill:#F7FAFC;" d="M431.398,212.395c-1.809-0.052-2.751-0.98-2.834-2.787c0.043-0.401,0.083-0.801,0.128-1.2
		c2.131,0.442,2.508,2.137,2.781,3.901L431.398,212.395z"/>
	<path style="fill:#F7FAFC;" d="M476.319,196.537c-0.055,1.227,0.094,2.536-1.542,3.512c-0.631-1.898-0.731-3.188,1.487-3.561
		L476.319,196.537z"/>
	<path style="fill:#F7FAFC;" d="M376.813,196.533c-0.144,1.189,0.29,2.615-1.598,3.338c-0.566-1.723-0.677-3.014,1.553-3.38
		C376.766,196.492,376.813,196.533,376.813,196.533z"/>
	<path style="fill:#FAF7F9;" d="M526.074,236.333c-0.145,1.194,0.287,2.625-1.604,3.351c-0.57-1.723-0.686-3.018,1.543-3.401
		L526.074,236.333z"/>
	<path style="fill:#FAF7F9;" d="M426.57,236.333c-0.049,1.231,0.096,2.544-1.546,3.526c-0.63-1.898-0.742-3.193,1.486-3.578
		L426.57,236.333z"/>
	<path style="fill:#FAF7F9;" d="M376.819,236.333c-0.048,1.231,0.096,2.544-1.546,3.526c-0.63-1.898-0.743-3.193,1.485-3.578
		L376.819,236.333z"/>
	<path style="fill:#FAF7F9;" d="M476.322,236.333c-0.047,1.231,0.096,2.544-1.546,3.526c-0.628-1.898-0.742-3.193,1.486-3.578
		L476.322,236.333z"/>
	<path style="fill:#FAF7F9;" d="M526.078,196.535c-0.147,1.191,0.283,2.623-1.607,3.348c-0.576-1.723-0.682-3.014,1.538-3.406
		L526.078,196.535z"/>
	<path style="fill:#F7FAFC;" d="M393.555,215.716c-2.191,0.901-3.44,0.833-4.813,0.403
		C389.974,214.797,391.302,215.547,393.555,215.716z"/>
	<path style="fill:#FAF7F9;" d="M541.832,215.79c-1.34,0.716-2.6,0.882-3.947,0.235C539.245,214.777,540.616,215.77,541.832,215.79z
		"/>
	<path style="fill:#FAF7F9;" d="M526.009,204.508c-0.989-0.189-1.972-0.449-1.739-1.76c0.058-0.313,0.704-0.83,0.901-0.758
		c1.188,0.43,0.748,1.566,0.909,2.445C526.082,204.436,526.009,204.508,526.009,204.508z"/>
	<path style="fill:#F7FAFC;" d="M476.268,204.497c-0.993-0.177-1.975-0.431-1.746-1.742c0.055-0.312,0.704-0.829,0.897-0.756
		c1.184,0.437,0.747,1.565,0.899,2.448C476.319,204.445,476.268,204.497,476.268,204.497z"/>
	<path style="fill:#FAF7F9;" d="M538.104,255.93c1.143-0.955,2.402-0.813,3.739-0.465
		C540.749,257.105,539.344,255.641,538.104,255.93z"/>
	<path style="fill:#FAF7F9;" d="M426.51,244.303c-0.993-0.184-1.976-0.439-1.745-1.754c0.057-0.313,0.706-0.83,0.902-0.757
		c1.187,0.435,0.748,1.569,0.904,2.45L426.51,244.303z"/>
	<path style="fill:#FAF7F9;" d="M376.758,244.303c-0.992-0.184-1.976-0.439-1.744-1.754c0.057-0.313,0.707-0.83,0.902-0.757
		c1.188,0.435,0.749,1.569,0.903,2.45C376.82,244.242,376.758,244.303,376.758,244.303z"/>
	<path style="fill:#FAF7F9;" d="M483.204,235.574c0.7,0.008,1.401,0.015,2.102,0.021c0.311,0.579,0.621,1.159,0.931,1.737
		c-1.323-0.396-2.613-0.337-3.859,0.29C482.652,236.941,482.928,236.26,483.204,235.574z"/>
	<path style="fill:#FAF7F9;" d="M392.932,255.66c-1.521,0.863-2.866,0.738-4.422,0.113
		C390.029,254.908,391.376,255.032,392.932,255.66z"/>
	<path style="fill:#F7FAFC;" d="M376.766,204.493c-0.992-0.173-1.974-0.423-1.748-1.735c0.053-0.313,0.705-0.826,0.898-0.756
		c1.18,0.438,0.746,1.566,0.894,2.448L376.766,204.493z"/>
	<path style="fill:#FAF7F9;" d="M437.706,255.686c2.248-0.558,3.507-0.727,4.904-0.055
		C441.188,256.596,439.856,256.318,437.706,255.686z"/>
	<path style="fill:#FAF7F9;" d="M493.053,255.354c-2.138,1.229-3.49,0.758-5.625,0.724
		C489.532,254.845,490.887,255.324,493.053,255.354z"/>
	<path style="fill:#FAF7F9;" d="M476.262,244.303c-0.992-0.184-1.975-0.439-1.744-1.754c0.056-0.313,0.707-0.83,0.901-0.757
		c1.188,0.435,0.748,1.569,0.904,2.45C476.326,244.242,476.262,244.303,476.262,244.303z"/>
	<path style="fill:#FAF7F9;" d="M526.014,244.303c-0.992-0.184-1.975-0.439-1.744-1.754c0.058-0.313,0.707-0.83,0.903-0.757
		c1.187,0.435,0.748,1.569,0.902,2.45C526.076,244.242,526.014,244.303,526.014,244.303z"/>
	<path style="fill:#57B8DC;" d="M450.774,189.423c-0.063,0.147-0.148,0.388-0.162,0.384c-0.281-0.082-0.585-0.15-0.82-0.313
		c-0.395-0.271-0.297-0.495,0.215-0.436C450.273,189.088,450.521,189.297,450.774,189.423z"/>
	<path style="fill:#F7FAFC;" d="M393.654,185.625c-0.617,0.279-1.035,0.639-1.313,0.551c-0.363-0.115-0.615-0.584-0.914-0.9
		c0.343-0.193,0.705-0.569,1.021-0.532C392.797,184.779,393.104,185.197,393.654,185.625z"/>
	<path style="fill:#FAF7F9;" d="M545.586,214.652c-0.234,0.129-0.468,0.253-0.703,0.381c-0.127-0.326-0.253-0.651-0.38-0.977
		c0.26-0.063,0.592-0.244,0.761-0.147C545.447,214.016,545.48,214.383,545.586,214.652z"/>
	<path style="fill:#57B8DC;" d="M431.778,187.838c0.189,0.162,0.38,0.299,0.526,0.473c0.021,0.022-0.165,0.318-0.264,0.324
		c-0.258,0.014-0.52-0.064-0.782-0.107C431.433,188.298,431.605,188.068,431.778,187.838z"/>
	<path style="fill:#F7FAFC;" d="M483.754,214.709c-0.151-0.283-0.393-0.536-0.39-0.785c0.004-0.25,0.25-0.496,0.391-0.746
		c0.139,0.25,0.386,0.498,0.389,0.747S483.904,214.426,483.754,214.709z"/>
	<path style="fill:#FAF7F9;" d="M542.645,185.199c-0.097,0.265-0.188,0.514-0.277,0.762c-0.241-0.146-0.57-0.244-0.692-0.457
		c-0.079-0.139,0.144-0.451,0.229-0.686C542.151,184.945,542.398,185.073,542.645,185.199z"/>
	<path style="fill:#FAF7F9;" d="M541.872,224.625c0.251,0.128,0.606,0.195,0.71,0.395c0.085,0.17-0.121,0.488-0.195,0.74
		c-0.245-0.135-0.576-0.216-0.706-0.422C541.594,225.197,541.795,224.881,541.872,224.625z"/>
	<path style="fill:#995691;" d="M315.779,136.112c-0.272,0.053-0.544,0.113-0.815,0.173c0.123,0.071,0.25,0.209,0.37,0.202
		c0.276-0.014,0.548-0.1,0.82-0.157C316.03,136.26,315.905,136.189,315.779,136.112z"/>
	<path style="fill:#FAF7F9;" d="M393.155,225.799c-0.249-0.145-0.586-0.232-0.712-0.443c-0.085-0.146,0.116-0.463,0.189-0.703
		c0.25,0.121,0.614,0.183,0.721,0.381C393.443,225.199,393.236,225.525,393.155,225.799z"/>
	<path style="fill:#FAF7F9;" d="M443.142,225.001c-0.097,0.265-0.188,0.515-0.278,0.763c-0.24-0.146-0.569-0.242-0.691-0.457
		c-0.08-0.139,0.144-0.451,0.231-0.686C442.646,224.748,442.895,224.874,443.142,225.001z"/>
	<path style="fill:#FAF7F9;" d="M491.793,224.924c0.274-0.07,0.604-0.265,0.771-0.172c0.191,0.107,0.246,0.469,0.361,0.721
		c-0.242,0.064-0.561,0.254-0.706,0.164C492.014,225.509,491.931,225.176,491.793,224.924z"/>
	<path style="fill:#F7FAFC;" d="M384.27,214.691c-0.155-0.277-0.403-0.521-0.403-0.769c-0.003-0.248,0.239-0.498,0.374-0.747
		c0.143,0.243,0.394,0.481,0.4,0.731C384.648,214.152,384.413,214.409,384.27,214.691z"/>
	<path style="fill:#F7FAFC;" d="M445.516,187.324c-0.113-0.043-0.229-0.088-0.343-0.131c0.132-0.129,0.265-0.254,0.396-0.383
		c0.085,0.096,0.17,0.188,0.255,0.281C445.721,187.171,445.617,187.248,445.516,187.324z"/>
	<path style="fill:#F7FAFC;" d="M384.498,187.73c-0.125,0.033-0.329,0.133-0.361,0.09c-0.086-0.106-0.101-0.273-0.142-0.416
		c0.126-0.035,0.328-0.135,0.361-0.092C384.443,187.418,384.455,187.585,384.498,187.73z"/>
	<path style="fill:#FAF7F9;" d="M552.628,233.939c0.044-0.125,0.084-0.353,0.134-0.354c0.142-0.004,0.284,0.082,0.428,0.131
		c-0.045,0.125-0.085,0.353-0.134,0.354C552.915,234.074,552.771,233.99,552.628,233.939z"/>
	<path style="fill:#FAF7F9;" d="M503.442,233.711c-0.044,0.125-0.083,0.352-0.134,0.352c-0.14,0.006-0.284-0.08-0.427-0.129
		c0.044-0.125,0.083-0.353,0.132-0.354C503.155,233.574,503.298,233.66,503.442,233.711z"/>
	<path style="fill:#FAF7F9;" d="M453.124,233.939c0.043-0.125,0.083-0.353,0.132-0.354c0.141-0.004,0.285,0.082,0.428,0.131
		c-0.043,0.125-0.084,0.353-0.133,0.354C453.411,234.074,453.267,233.99,453.124,233.939z"/>
	<path style="fill:#FAF7F9;" d="M403.915,233.945c-0.146,0.043-0.29,0.085-0.435,0.129c-0.033-0.127-0.133-0.34-0.096-0.366
		C403.768,233.43,403.954,233.521,403.915,233.945z"/>
	<path style="fill:#F7FAFC;" d="M403.624,194.277c-0.116-0.094-0.231-0.189-0.349-0.285c0.134-0.072,0.271-0.211,0.398-0.2
		c0.123,0.012,0.233,0.173,0.352,0.269C403.891,194.133,403.758,194.205,403.624,194.277z"/>
	<path style="fill:#995691;" d="M347.921,117.921c-0.063-0.226-0.125-0.453-0.188-0.681c-0.438,0.363-0.272,0.573,0.18,0.713
		L347.921,117.921z"/>
	<path style="fill:#FAF7F9;" d="M476.262,236.281c0.139-0.43,0.278-0.859,0.417-1.291c0.125,0.087,0.362,0.244,0.357,0.252
		c-0.227,0.371-0.472,0.73-0.716,1.09C476.322,236.333,476.262,236.281,476.262,236.281z"/>
	<path style="fill:#FAF7F9;" d="M533.386,227.615c-0.042-0.143-0.084-0.288-0.128-0.432c0.127-0.035,0.339-0.134,0.364-0.097
		C533.901,227.471,533.811,227.657,533.386,227.615z"/>
	<path style="fill:#FAF7F9;" d="M484.019,227.291c-0.043,0.113-0.086,0.227-0.131,0.339c-0.126-0.132-0.251-0.261-0.378-0.392
		c0.093-0.082,0.188-0.168,0.28-0.252C483.865,227.087,483.942,227.188,484.019,227.291z"/>
	<path style="fill:#FAF7F9;" d="M433.882,227.615c-0.043-0.143-0.084-0.288-0.128-0.432c0.127-0.035,0.339-0.136,0.366-0.097
		C434.397,227.471,434.306,227.657,433.882,227.615z"/>
	<path style="fill:#FAF7F9;" d="M384.514,227.291c-0.043,0.113-0.086,0.227-0.13,0.339c-0.126-0.132-0.252-0.261-0.378-0.392
		c0.092-0.082,0.188-0.168,0.279-0.252C384.362,227.087,384.439,227.188,384.514,227.291z"/>
	<path style="fill:#FAF7F9;" d="M526.009,196.477c0.142-0.43,0.283-0.858,0.425-1.287c0.125,0.086,0.362,0.244,0.355,0.254
		c-0.223,0.371-0.47,0.73-0.711,1.091C526.078,196.535,526.009,196.477,526.009,196.477z"/>
	<path style="fill:#FAF7F9;" d="M533.622,213.709c-0.124-0.043-0.353-0.083-0.354-0.133c-0.006-0.141,0.082-0.283,0.132-0.428
		c0.125,0.043,0.352,0.086,0.352,0.133C533.758,213.424,533.672,213.568,533.622,213.709z"/>
	<path style="fill:#FAF7F9;" d="M526.014,236.281c0.141-0.43,0.278-0.859,0.419-1.291c0.124,0.087,0.36,0.244,0.355,0.252
		c-0.226,0.371-0.472,0.73-0.716,1.09C526.074,236.333,526.014,236.281,526.014,236.281z"/>
	<path style="fill:#FAF7F9;" d="M426.51,236.281c0.139-0.43,0.278-0.859,0.417-1.291c0.125,0.087,0.362,0.244,0.357,0.252
		c-0.227,0.371-0.472,0.73-0.717,1.09C426.57,236.333,426.51,236.281,426.51,236.281z"/>
	<path style="fill:#FAF7F9;" d="M376.758,236.281c0.141-0.43,0.278-0.859,0.418-1.291c0.125,0.087,0.361,0.244,0.357,0.252
		c-0.227,0.371-0.474,0.73-0.717,1.09C376.819,236.333,376.758,236.281,376.758,236.281z"/>
	<path style="fill:#57B8DC;" d="M428.017,192.412c-0.074-0.107-0.218-0.227-0.206-0.325c0.011-0.101,0.176-0.185,0.272-0.274
		c0.075,0.109,0.217,0.228,0.206,0.326C428.279,192.238,428.114,192.322,428.017,192.412z"/>
	<path style="fill:#57B8DC;" d="M428.692,208.406c-0.043,0.4-0.083,0.799-0.128,1.199c-0.207-0.312-0.415-0.625-0.623-0.938
		C428.192,208.582,428.442,208.494,428.692,208.406z"/>
	<path style="fill:#57B8DC;" d="M453.117,192.102c-0.091,0.104-0.179,0.203-0.267,0.304c-0.075-0.109-0.219-0.226-0.208-0.325
		c0.01-0.1,0.174-0.188,0.269-0.275C452.986,191.911,453.063,192.021,453.117,192.102z"/>
	<path style="fill:#57B8DC;" d="M431.475,212.309c0.244,0.116,0.489,0.234,0.732,0.354c-0.114,0.128-0.23,0.257-0.346,0.386
		c-0.153-0.219-0.309-0.437-0.461-0.653C431.398,212.395,431.475,212.309,431.475,212.309z"/>
	<path style="fill:#57B8DC;" d="M449.543,212.395c-0.197,0.246-0.396,0.492-0.594,0.738c-0.714-0.837,0.271-0.596,0.52-0.822
		L449.543,212.395z"/>
	<path style="fill:#FAF7F9;" d="M520.137,37.479c-0.51,4.663-2.524,8.164-7.056,9.964c-2.041,0.81-3.235,0.626-2.906-1.936
		c0.696-5.409,1.411-10.817,2.131-16.225c0.289-2.167,1.537-1.753,2.815-0.963C518.527,30.422,519.914,33.637,520.137,37.479z"/>
	<path style="fill:#FAF7F9;" d="M472.178,45.463c0.418,2.491-0.632,2.829-2.772,2.001c-4.139-1.6-6.389-4.699-6.94-8.92
		c-0.531-4.081,1.005-7.503,4.387-9.931c1.465-1.052,3.014-1.861,3.354,1.107C470.805,34.976,471.515,40.216,472.178,45.463z"/>
	<path style="fill:#F0EFF1;" d="M497.443,37.328c-0.722,3.586,2.377,5.607,3.503,8.439c0.914,2.302,3.898,4.542-1.135,6.216
		c-1.295-2.199-2.941-4.982-4.575-7.774c-2.571-4.396-5.311-4.398-7.983,0.031c-0.854,1.415-1.559,2.92-2.403,4.342
		c-0.752,1.268-1.6,2.477-2.393,3.691c-3.862-1.88-2.213-4.247-0.809-6.601c1.016-1.704,2.114-3.37,2.98-5.148
		c0.837-1.72,1.574-2.539,3.742-1.591c3.183,1.39,6.14,0.175,8.789-1.811C497.16,37.126,497.443,37.328,497.443,37.328z"/>
	<path style="fill:#DAC9D8;" d="M497.298,26.233c3.271,3.117,3.912,6.5,1.04,10.241c-0.127-0.131-0.255-0.259-0.386-0.386
		c0.634-3.269,0.078-6.413-1.003-9.5C497.069,26.474,497.186,26.355,497.298,26.233z"/>
	<path style="fill:#DAC9D8;" d="M486.092,25.226c2.688-2.933,5.635-2.069,8.632-0.622c-2.806-0.074-5.518,0.523-8.245,1.001
		C486.352,25.478,486.223,25.35,486.092,25.226z"/>
	<path style="fill:#DAC9D8;" d="M483.484,36.096c-1.557-3.37-1.633-5.237,0.082-7.569C484.555,30.88,484.207,32.754,483.484,36.096z
		"/>
	<polygon style="fill:#F0EFF1;" points="484.512,36.834 484.795,36.706 484.77,37.009 	"/>
	<path style="fill:#DAC9D8;" d="M485.486,26.588c-0.217,0.189-0.57,0.579-0.626,0.54c-0.633-0.439-0.144-0.695,0.21-0.959
		C485.207,26.313,485.345,26.452,485.486,26.588z"/>
	<path style="fill:#DAC9D8;" d="M496.949,26.588c-0.267-0.242-0.832-0.417-0.224-0.85c0.05-0.034,0.374,0.322,0.571,0.496
		C497.186,26.355,497.069,26.474,496.949,26.588z"/>
	<path style="fill:#DAC9D8;" d="M498.338,36.474c-0.302,0.285-0.604,0.569-0.897,0.854c0.004,0-0.279-0.201-0.279-0.204
		c0.265-0.345,0.531-0.688,0.795-1.034C498.083,36.215,498.211,36.343,498.338,36.474z"/>
	<path style="fill:#DAC9D8;" d="M486.479,25.606c-0.331,0.326-0.664,0.652-0.995,0.98c-0.139-0.135-0.276-0.274-0.413-0.418
		c0.342-0.313,0.682-0.627,1.022-0.942C486.223,25.35,486.352,25.478,486.479,25.606z"/>
	<path style="fill:#DAC9D8;" d="M318.523,17.452c-3.245,1.268-6.463,0.966-9.676,0.154
		C312.057,16.018,315.284,16.187,318.523,17.452z"/>
	<path style="fill:#FAF7F9;" d="M316.076,78.57c-0.163,1.275-0.819,2.17-2.161,2.078c-1.318-0.089-1.957-1.047-1.911-2.324
		c0.044-1.271,0.632-2.21,2.076-2.053C315.382,76.413,316.016,77.275,316.076,78.57z"/>
	<path style="fill:#F1E4DA;" d="M462.877,136.461c2.962-3.147,5.511-5.951,8.191-8.62c0.56-0.559,1.011-2.487,2.468-0.822
		c0.985,1.126,2.294,2.408,0.98,3.816c-3.362,3.613-6.886,7.084-10.47,10.481c-1.284,1.221-2.397,0.106-3.357-0.86
		c-2.787-2.801-5.573-5.605-8.385-8.386c-1.058-1.047-2.646-2.372-1.387-3.648c1.293-1.311,3.371-1.056,4.842,0.484
		C458.028,131.282,460.264,133.685,462.877,136.461z"/>
	<path style="fill:#8C3A74;" d="M58.785,26.728c-4.576,7.73,3.672,10.254,7.187,14.984c0.831,1.12,3.5,1.944,1.434,3.854
		c-1.699,1.569-2.509-0.718-3.495-1.549c-1.516-1.274-2.952-2.682-4.224-4.202c-2.669-3.19-5.247-4.918-10.011-3.5
		c-5.634,1.677-11.218-3.143-11.907-9.059c-0.647-5.544,4.141-11.144,9.899-11.582C53.335,15.24,58.717,20.252,58.785,26.728z
		 M55.513,26.002c-0.117-4.188-3.105-7.038-7.32-6.986c-4.375,0.055-7.346,3.27-7.107,7.689c0.223,4.138,3.329,6.906,7.56,6.74
		C52.774,33.282,55.63,30.187,55.513,26.002z"/>
	<path style="fill:#8C3A74;" d="M67.289,129.089c-0.162,6.723-6.216,12.665-12.891,12.654c-6.806-0.009-13.08-6.412-12.897-13.162
		c0.186-6.804,6.137-12.631,12.9-12.628C61.346,115.957,67.457,122.185,67.289,129.089z M56.403,123.457
		c-3.703-0.222-7.162-1.695-11.64,0.82c4.951,0.359,4.828,2.988,4.954,5.899c0.094,2.149-1.632,6.062,1.477,6.145
		c2.72,0.073,1.164-3.791,1.249-5.829C52.572,127.48,52.436,124.678,56.403,123.457z M61.68,129.964
		c-1.025-2.251,1.391-6.651-1.655-6.651c-2.873,0.001-1.325,4.411-1.314,6.788c0.009,2.156-1.587,6.208,1.402,6.192
		C62.871,136.28,60.834,132.178,61.68,129.964z"/>
	<path style="fill:#FEFEFE;" d="M538.671,197.838c-3.678,1.584-2.103,2.979,0.313,4.311c-0.473,0.406-0.883,1.021-1.426,1.183
		c-1.58,0.474-2.912-0.051-3.859-1.423c-0.819-1.19-0.898-2.495-0.196-3.719c0.813-1.42,2.124-2.006,3.763-1.701
		C537.922,196.609,538.49,196.886,538.671,197.838z"/>
	<path style="fill:#F1BD01;" d="M55.513,26.002c0.117,4.185-2.739,7.28-6.867,7.442c-4.231,0.166-7.337-2.602-7.56-6.74
		c-0.239-4.419,2.732-7.634,7.107-7.689C52.408,18.964,55.396,21.814,55.513,26.002z"/>
	<path style="fill:#F1BD01;" d="M56.403,123.457c-3.967,1.221-3.831,4.025-3.959,7.034c-0.087,2.038,1.469,5.901-1.25,5.829
		c-3.109-0.082-1.382-3.995-1.477-6.145c-0.126-2.911-0.002-5.54-4.954-5.899C49.242,121.762,52.7,123.234,56.403,123.457z"/>
	<path style="fill:#F1BD01;" d="M61.68,129.964c-0.846,2.214,1.191,6.316-1.567,6.33c-2.989,0.016-1.393-4.037-1.402-6.193
		c-0.01-2.376-1.559-6.786,1.314-6.788C63.072,123.313,60.656,127.713,61.68,129.964z"/>
	<g id="Layer_3">
	</g>
	<g>
		<path style="fill:#354D80;" d="M406.608,199.832c-0.008,8.75-6.981,15.549-15.95,15.539c-8.459-0.006-15.48-7.1-15.443-15.6
			c0.038-8.598,7.021-15.531,15.693-15.586C399.539,184.131,406.612,191.184,406.608,199.832z"/>
		<path style="fill:#FDFDFD;" d="M391.152,186.503c7.475,0.058,13.394,6.069,13.325,13.539c-0.063,7.222-6.199,13.053-13.679,12.995
			c-7.167-0.055-13.095-6.17-13.03-13.441C377.835,192.385,383.904,186.449,391.152,186.503z"/>
	</g>
	<g>
		<path style="fill:#812250;" d="M406.804,238.911c-0.007,8.751-6.98,15.551-15.951,15.54c-8.459-0.006-15.479-7.098-15.441-15.598
			c0.037-8.599,7.021-15.533,15.692-15.586C399.734,223.211,406.808,230.264,406.804,238.911z"/>
		<path style="fill:#FDFDFD;" d="M391.348,225.584c7.476,0.059,13.395,6.07,13.325,13.539c-0.063,7.223-6.2,13.055-13.679,12.996
			c-7.167-0.057-13.095-6.17-13.029-13.443C378.029,231.467,384.099,225.531,391.348,225.584z"/>
	</g>
	<path style="fill:#812250;" d="M388.377,244.43c0-1.422-0.029-2.843,0.015-4.262c0.021-0.66-0.19-0.906-0.75-0.791
		c-0.946,0.193-1.227-0.291-1.088-1.254c0.035-0.236,0.005-0.482,0.005-0.729c0-1.479-0.001-1.502,1.302-1.631
		c0.414-0.043,0.531-0.226,0.522-0.646c-0.016-0.693-0.022-1.388,0.01-2.08c0.114-2.313,1.49-3.781,3.566-3.831
		c0.313-0.007,0.626-0.021,0.939,0.004c0.705,0.055,1.735-0.369,2.047,0.174c0.453,0.795,0.108,1.947,0.145,2.946
		c0.01,0.313-0.146,0.427-0.409,0.415c-0.189-0.007-0.377,0.008-0.563,0c-2.103-0.104-1.907,0.156-1.921,2.423
		c-0.002,0.474,0.195,0.595,0.576,0.583c0.593-0.013,1.188,0.007,1.782-0.007c0.398-0.009,0.563,0.129,0.498,0.614
		c-0.11,0.82-0.191,1.651-0.229,2.479c-0.023,0.496-0.252,0.511-0.604,0.545c-0.665,0.069-1.554-0.392-1.937,0.24
		c-0.307,0.506-0.082,1.41-0.083,2.136c-0.003,2.29-0.021,4.575,0.01,6.864c0.011,0.646-0.108,0.948-0.765,0.897
		c-0.811-0.061-1.628-0.039-2.441-0.004c-0.496,0.02-0.646-0.187-0.638-0.723C388.396,247.342,388.377,245.885,388.377,244.43z"/>
	<path style="fill:#354D80;" d="M388.092,205.426c0-1.422-0.029-2.844,0.015-4.262c0.021-0.661-0.19-0.906-0.749-0.793
		c-0.948,0.193-1.229-0.29-1.09-1.252c0.035-0.237,0.007-0.484,0.007-0.729c0-1.48-0.002-1.502,1.3-1.633
		c0.414-0.042,0.532-0.224,0.522-0.645c-0.016-0.693-0.022-1.389,0.012-2.079c0.113-2.313,1.488-3.782,3.565-3.832
		c0.313-0.007,0.626-0.021,0.938,0.004c0.705,0.055,1.735-0.369,2.047,0.174c0.453,0.794,0.108,1.947,0.145,2.946
		c0.012,0.313-0.146,0.427-0.409,0.415c-0.188-0.007-0.377,0.008-0.563,0c-2.102-0.103-1.908,0.157-1.921,2.423
		c-0.003,0.475,0.196,0.595,0.575,0.583c0.594-0.013,1.188,0.008,1.783-0.006c0.397-0.009,0.563,0.128,0.498,0.614
		c-0.111,0.819-0.191,1.65-0.229,2.479c-0.023,0.496-0.252,0.509-0.604,0.545c-0.665,0.068-1.554-0.394-1.937,0.24
		c-0.305,0.506-0.082,1.409-0.083,2.135c-0.003,2.291-0.021,4.576,0.011,6.865c0.01,0.644-0.108,0.946-0.766,0.897
		c-0.81-0.061-1.627-0.041-2.441-0.006c-0.496,0.021-0.646-0.186-0.638-0.722C388.109,208.336,388.092,206.88,388.092,205.426z"/>
	<g>
		<path style="fill:#339DC3;" d="M455.855,199.814c-0.008,8.75-6.981,15.55-15.95,15.539c-8.459-0.006-15.48-7.099-15.443-15.6
			c0.038-8.597,7.021-15.531,15.693-15.586C448.786,184.114,455.859,191.166,455.855,199.814z"/>
		<g>
			<path style="fill:#812250;" d="M455.854,238.993c-0.007,8.75-6.98,15.549-15.949,15.539c-8.459-0.007-15.48-7.099-15.443-15.601
				c0.038-8.597,7.021-15.531,15.693-15.586C448.785,223.292,455.858,230.344,455.854,238.993z"/>
			<path style="fill:#FFFFFF;" d="M440.398,225.664c7.475,0.059,13.394,6.068,13.325,13.539
				c-0.063,7.222-6.199,13.053-13.679,12.995c-7.167-0.056-13.095-6.171-13.03-13.441
				C427.081,231.546,433.15,225.609,440.398,225.664z"/>
		</g>
		<path style="fill:#005983;" d="M505.938,200.111c-0.008,8.75-6.981,15.55-15.95,15.539c-8.459-0.006-15.48-7.099-15.443-15.6
			c0.038-8.597,7.021-15.531,15.693-15.586C498.868,184.411,505.941,191.463,505.938,200.111z"/>
		<path style="fill:#FDFDFD;" d="M490.481,186.783c7.475,0.058,13.394,6.068,13.325,13.539c-0.063,7.222-6.199,13.053-13.679,12.994
			c-7.167-0.055-13.095-6.17-13.03-13.44C477.164,192.665,483.233,186.73,490.481,186.783z"/>
		<path style="fill:#FDFDFD;" d="M440.399,186.486c7.475,0.058,13.394,6.068,13.325,13.539c-0.063,7.222-6.199,13.053-13.679,12.994
			c-7.167-0.055-13.095-6.17-13.03-13.44C427.082,192.368,433.151,186.434,440.399,186.486z"/>
		<path style="fill:#812250;" d="M505.688,238.861c-0.008,8.75-6.981,15.55-15.95,15.539c-8.459-0.006-15.48-7.099-15.443-15.6
			c0.038-8.597,7.021-15.531,15.693-15.586C498.618,223.161,505.691,230.213,505.688,238.861z"/>
		<path style="fill:#FDFDFD;" d="M490.231,225.533c7.475,0.058,13.394,6.068,13.325,13.539c-0.063,7.222-6.199,13.053-13.679,12.994
			c-7.167-0.055-13.095-6.17-13.03-13.44C476.914,231.415,482.983,225.48,490.231,225.533z"/>
		<path style="fill:#DC4335;" d="M555.188,200.361c-0.008,8.75-6.981,15.55-15.95,15.539c-8.459-0.006-15.48-7.099-15.443-15.6
			c0.038-8.597,7.021-15.531,15.693-15.586C548.118,184.661,555.191,191.713,555.188,200.361z"/>
		<path style="fill:#FDFDFD;" d="M539.731,187.033c7.475,0.058,13.394,6.068,13.325,13.539c-0.063,7.222-6.199,13.053-13.679,12.994
			c-7.167-0.055-13.095-6.17-13.03-13.44C526.414,192.915,532.483,186.98,539.731,187.033z"/>
		<path style="fill:#812250;" d="M555.438,238.861c-0.008,8.75-6.981,15.55-15.95,15.539c-8.459-0.006-15.48-7.099-15.443-15.6
			c0.038-8.597,7.021-15.531,15.693-15.586C548.368,223.161,555.441,230.213,555.438,238.861z"/>
		<path style="fill:#FDFDFD;" d="M539.981,225.533c7.475,0.058,13.394,6.068,13.325,13.539c-0.063,7.222-6.199,13.053-13.679,12.994
			c-7.167-0.055-13.095-6.17-13.03-13.44C526.664,231.415,532.733,225.48,539.981,225.533z"/>
	</g>
	<path style="fill:#369EC3;" d="M432.163,193.359c1.763,1.959,3.747,3.311,6.188,3.923c0.225,0.054,0.448,0.106,0.674,0.153
		c1.486,0.297,1.486,0.297,1.604-1.181c0.229-2.871,3.666-4.646,6.164-3.024c1.053,0.682,1.835,0.565,2.78,0.097
		c0.199-0.099,0.409-0.177,0.751-0.321c-0.2,0.881-0.74,1.387-1.319,1.988c0.662,0.143,1.126-0.279,1.74-0.271
		c-0.071,0.42-0.361,0.715-0.641,0.902c-1.041,0.702-1.217,1.717-1.313,2.861c-0.405,4.74-3.872,8.85-8.485,10.011
		c-3.228,0.812-6.335,0.454-9.245-1.356c2.007-0.006,3.88-0.398,5.633-1.721c-1.187-0.238-2.154-0.648-2.866-1.496
		c-0.315-0.375-0.766-0.822-0.619-1.26c0.128-0.378,0.772-0.018,1.27-0.253c-1.744-0.765-2.783-1.991-2.882-3.905
		c0.517-0.148,0.91,0.367,1.493,0.209C431.582,197.169,431.239,195.443,432.163,193.359z"/>
	<path style="fill:#812250;" d="M432.163,232.521c1.763,1.959,3.747,3.311,6.188,3.922c0.225,0.055,0.448,0.107,0.674,0.154
		c1.486,0.297,1.486,0.297,1.604-1.181c0.229-2.871,3.666-4.646,6.164-3.024c1.053,0.682,1.835,0.565,2.78,0.097
		c0.199-0.099,0.409-0.177,0.751-0.321c-0.2,0.881-0.74,1.387-1.319,1.988c0.662,0.143,1.126-0.279,1.74-0.271
		c-0.071,0.42-0.361,0.715-0.641,0.902c-1.041,0.702-1.217,1.717-1.313,2.861c-0.405,4.74-3.872,8.85-8.485,10.011
		c-3.228,0.812-6.335,0.454-9.245-1.356c2.007-0.006,3.88-0.398,5.633-1.721c-1.187-0.238-2.154-0.648-2.866-1.496
		c-0.315-0.375-0.766-0.822-0.619-1.26c0.128-0.378,0.772-0.018,1.27-0.253c-1.744-0.765-2.783-1.991-2.882-3.905
		c0.517-0.148,0.91,0.367,1.493,0.209C431.582,236.331,431.239,234.605,432.163,232.521z"/>
	<g>
		<path style="fill:#812250;" d="M499.348,239.913v6.313h-3.826v-5.889c0-1.479-0.553-2.487-1.938-2.487
			c-1.058,0-1.686,0.681-1.963,1.338c-0.103,0.234-0.127,0.563-0.127,0.892v6.146h-3.828c0,0,0.052-9.973,0-11.005h3.828v1.56
			c-0.008,0.013-0.02,0.024-0.025,0.037h0.025v-0.037c0.509-0.748,1.415-1.817,3.449-1.817
			C497.46,234.962,499.348,236.534,499.348,239.913L499.348,239.913z M483.662,229.915c-1.311,0-2.166,0.822-2.166,1.9
			c0,1.057,0.832,1.902,2.116,1.902h0.023c1.334,0,2.165-0.846,2.165-1.902C485.776,230.737,484.971,229.915,483.662,229.915
			L483.662,229.915z M481.724,246.226h3.825v-11.005h-3.825V246.226z"/>
	</g>
</g>
<g id="Layer_2">
	<polygon style="fill:none;stroke:#8D3862;stroke-miterlimit:10;" points="141.411,114.581 143.736,119.414 148.936,120.189 
		145.172,123.951 146.062,129.262 141.411,126.755 136.758,129.262 137.648,123.951 133.884,120.189 139.084,119.414 	"/>
	<polygon style="fill:#8D3862;" points="115.298,113.713 117.823,118.833 123.473,119.652 119.386,123.637 120.351,129.264 
		115.298,126.607 110.245,129.264 111.211,123.637 107.122,119.652 112.772,118.833 	"/>
</g>
<g>
	<path style="fill:#005983;" d="M499.348,201.068v6.313h-3.826v-5.889c0-1.479-0.553-2.487-1.938-2.487
		c-1.058,0-1.686,0.681-1.963,1.338c-0.103,0.234-0.127,0.563-0.127,0.892v6.146h-3.828c0,0,0.052-9.973,0-11.005h3.828v1.56
		c-0.008,0.013-0.02,0.024-0.025,0.037h0.025v-0.037c0.509-0.748,1.415-1.817,3.449-1.817
		C497.46,196.117,499.348,197.689,499.348,201.068L499.348,201.068z M483.662,191.07c-1.311,0-2.166,0.822-2.166,1.9
		c0,1.057,0.832,1.902,2.116,1.902h0.023c1.334,0,2.165-0.846,2.165-1.902C485.776,191.893,484.971,191.07,483.662,191.07
		L483.662,191.07z M481.724,207.381h3.825v-11.005h-3.825V207.381z"/>
</g>
<g>
	<path style="fill:#DC4335;" d="M536.757,199.652v2.414h3.413c-0.137,1.036-1.031,3.038-3.413,3.038
		c-2.056,0-3.732-1.991-3.732-4.446s1.677-4.446,3.732-4.446c1.169,0,1.952,0.583,2.398,1.086l1.635-1.841
		c-1.049-1.146-2.408-1.841-4.033-1.841c-3.328,0-6.02,3.149-6.02,7.042s2.691,7.042,6.02,7.042c3.474,0,5.778-2.856,5.778-6.881
		c0-0.463-0.043-0.814-0.094-1.167H536.757L536.757,199.652z"/>
	<path style="fill:#DC4335;" d="M549.655,199.652h-1.72v-2.012h-1.72v2.012h-1.72v2.012h1.72v2.012h1.72v-2.012h1.72V199.652z"/>
</g>
<g>
	<path style="fill:#812250;" d="M536.587,238.336v2.414H540c-0.137,1.036-1.031,3.038-3.413,3.038c-2.056,0-3.732-1.991-3.732-4.446
		s1.677-4.446,3.732-4.446c1.169,0,1.952,0.583,2.398,1.086l1.635-1.841c-1.049-1.146-2.408-1.841-4.033-1.841
		c-3.328,0-6.02,3.149-6.02,7.042s2.691,7.042,6.02,7.042c3.474,0,5.778-2.856,5.778-6.881c0-0.463-0.043-0.814-0.094-1.167H536.587
		L536.587,238.336z"/>
	<path style="fill:#812250;" d="M549.485,238.336h-1.72v-2.012h-1.72v2.012h-1.72v2.012h1.72v2.012h1.72v-2.012h1.72V238.336z"/>
</g>
</svg>
